<svg width="88" height="115" viewBox="0 0 88 115" fill="none" xmlns="http://www.w3.org/2000/svg">
<path d="M43.5588 1.8688C43.5588 1.8688 30.8699 17.2022 1.89355 17.2022V53.8106C1.89355 72.9772 10.0372 91.3772 24.9989 103.069C30.3017 107.286 36.3622 110.927 43.559 113.036C50.7558 110.927 57.0056 107.286 62.1191 103.069C77.0806 91.3774 85.2245 72.9774 85.2245 53.8106V17.2022C56.2479 17.2022 43.5588 1.8688 43.5588 1.8688Z" fill="#FFE100"/>
<path d="M79.5424 17.2022V53.8106C79.5424 72.9772 71.3988 91.3772 56.437 103.069C51.8917 106.711 46.5889 109.777 40.7178 112.077C41.6648 112.461 42.6116 112.652 43.5586 113.036C50.7554 110.927 57.0052 107.286 62.1187 103.069C77.0802 91.3777 85.224 72.9777 85.224 53.8108V17.2022H79.5424Z" fill="#FFA800"/>
<path d="M7.57519 17.2022V53.8106C7.57519 72.9772 15.7188 91.3772 30.6806 103.069C35.2259 106.711 40.5287 109.777 46.3998 112.077C45.4528 112.461 44.506 112.652 43.559 113.036C36.3622 110.927 30.1124 107.286 24.9989 103.069C10.0372 91.3772 1.89355 72.9772 1.89355 53.8104V17.2022H7.57519Z" fill="white"/>
<path d="M43.5588 101.535C39.5817 100.002 35.6045 96.9354 32.0062 94.0604C20.2641 84.6688 13.2568 69.7188 13.2568 53.8104V27.9354C27.2716 26.2104 37.1197 21.6104 43.5588 17.202C49.9979 21.6104 59.8462 26.2104 73.8608 27.9354V53.8104C73.8608 69.7188 66.8535 84.8604 55.1114 94.0604C51.5131 96.9354 47.5359 100.002 43.5588 101.535Z" fill="#FFE100"/>
<path d="M43.559 114.952C43.3697 114.952 43.1802 114.952 42.9909 114.952C36.1729 112.844 29.7338 109.394 23.6733 104.602C8.90108 92.7188 0 73.7438 0 53.8104V17.2022C0 16.0522 0.757478 15.2856 1.8938 15.2856C29.7338 15.2854 42.0441 0.718806 42.0441 0.718806C42.8016 -0.239602 44.3167 -0.239602 44.8849 0.718806C45.0742 0.718806 57.5738 15.2854 85.2245 15.2854C86.3608 15.2854 87.1183 16.052 87.1183 17.202V53.8104C87.1183 73.7438 78.217 92.7188 63.4448 104.602C57.3843 109.394 50.9452 112.844 44.1272 114.952C43.9379 114.952 43.7486 114.952 43.559 114.952ZM3.78761 19.1188V53.8104C3.78761 72.5938 12.1207 90.4188 26.1353 101.535C31.6276 105.944 37.4986 109.01 43.559 110.927C49.6195 109.01 55.4905 105.752 60.9828 101.535C74.9976 90.4188 83.3305 72.5938 83.3305 53.8104V19.1188C60.2251 18.5438 47.5362 8.57722 43.559 4.55221C39.5819 8.57722 26.893 18.5438 3.78761 19.1188Z" fill="black"/>
<path d="M43.5591 103.452C43.3697 103.452 43.1802 103.452 42.8016 103.261C38.4456 101.536 34.2791 98.2772 30.6808 95.594C18.5601 85.819 11.3633 70.294 11.3633 53.8106V27.9356C11.3633 26.9772 12.1208 26.2106 13.0678 26.019C27.6507 24.1024 37.1199 19.3106 42.6123 15.4774C43.1804 15.094 44.1274 15.094 44.6956 15.4774C50.1879 19.3108 59.6572 24.1024 74.2401 26.019C75.1871 26.2106 75.9446 26.9774 75.9446 27.9356V53.8106C75.9446 70.294 68.7478 86.0106 56.4377 95.594C52.6499 98.6606 48.6727 101.536 44.317 103.261C43.9379 103.452 43.7486 103.452 43.5591 103.452ZM15.1509 29.6604V53.8104C15.1509 69.1438 21.7795 83.7104 33.1428 92.527C36.3625 95.0186 39.9608 97.8936 43.5591 99.427C47.1573 97.8936 50.7559 95.2104 53.9753 92.527C65.1493 83.5186 71.9672 69.1436 71.9672 53.8104V29.6604C58.5206 27.7438 49.2407 23.1438 43.5591 19.502C37.8774 23.1438 28.5975 27.7438 15.1509 29.6604Z" fill="black"/>
<path d="M51.5689 58.9944C50.1794 58.9944 49.053 57.8968 49.053 56.543V48.9264C49.053 45.9429 46.5619 43.5157 43.4999 43.5157C40.4379 43.5157 37.9468 45.9429 37.9468 48.9264V56.5429C37.9468 57.8967 36.8204 58.9943 35.4309 58.9943C34.0415 58.9943 32.915 57.8967 32.915 56.5429V48.9264C32.9149 43.2395 37.6633 38.6128 43.4998 38.6128C49.3363 38.6128 54.0847 43.2395 54.0847 48.9263V56.5429C54.0848 57.8967 52.9583 58.9944 51.5689 58.9944Z" fill="white"/>
<path d="M51.6232 59C50.3105 59 49.2463 57.923 49.2463 56.5945V49.1205C49.2463 46.1928 46.8928 43.8111 44.0001 43.8111C41.1072 43.8111 38.7537 46.1929 38.7537 49.1205V56.5944C38.7537 57.9229 37.6896 58.9999 36.3769 58.9999C35.0642 58.9999 34 57.9229 34 56.5944V49.1205C33.9999 43.5401 38.4859 39 43.9999 39C49.514 39 54 43.54 54 49.1204V56.5944C54.0001 57.9229 52.9359 59 51.6232 59Z" fill="#565A65"/>
<path d="M50.742 59C49.495 59 48.484 57.923 48.484 56.5945V49.1205C48.484 46.1928 46.2482 43.8111 43.5001 43.8111C40.7519 43.8111 38.5161 46.1929 38.5161 49.1205V56.5944C38.5161 57.9229 37.5051 58.9999 36.258 58.9999C35.011 58.9999 34 57.9229 34 56.5944V49.1205C33.9999 43.5401 38.2616 39 43.4999 39C48.7383 39 53 43.54 53 49.1204V56.5944C53.0001 57.9229 51.9891 59 50.742 59Z" fill="#C7CFE2"/>
<g opacity="0.1">
<path d="M35.431 58.9945C36.8204 58.9945 37.9469 57.897 37.9469 56.5431V51.0828H32.915V56.5431C32.915 57.8969 34.0414 58.9945 35.431 58.9945Z" fill="black"/>
<path d="M49.0527 51.0827V56.5429C49.0527 57.8967 50.1792 58.9943 51.5686 58.9943C52.9581 58.9943 54.0845 57.8967 54.0845 56.5429V51.0826L49.0527 51.0827Z" fill="black"/>
</g>
<path d="M54.6115 54H32.3885C31.0694 54 30 54.9835 30 56.1966V72.8034C30 74.0166 31.0694 75 32.3885 75H54.6115C55.9306 75 57 74.0166 57 72.8034V56.1966C57.0001 54.9835 55.9306 54 54.6115 54Z" fill="white"/>
<path d="M54.7884 54H34.2116C32.9901 54 32 54.9835 32 56.1966V72.8034C32 74.0166 32.9901 75 34.2116 75H54.7884C56.0099 75 57 74.0166 57 72.8034V56.1966C57.0001 54.9835 56.0099 54 54.7884 54Z" fill="#B7391E"/>
<path d="M52.9654 54H34.0346C32.9109 54 32 54.9835 32 56.1966V72.8034C32 74.0166 32.9109 75 34.0346 75H52.9654C54.0891 75 55 74.0166 55 72.8034V56.1966C55.0001 54.9835 54.0891 54 52.9654 54Z" fill="#FF532E"/>
<path d="M54.7141 52.9359V48.9264C54.7141 42.9015 49.6836 38 43.5002 38C37.3168 38 32.2863 42.9015 32.2863 48.9263V52.9358C30.7863 53.0829 29.6113 54.3202 29.6113 55.8198V57.3579C29.6113 57.6964 29.8929 57.9707 30.2403 57.9707C30.5876 57.9707 30.8692 57.6964 30.8692 57.3579V55.8198C30.8692 54.8973 31.6395 54.1468 32.5862 54.1468H54.414C55.3608 54.1468 56.1311 54.8973 56.1311 55.8198V68.3627C56.1311 68.7011 56.4127 68.9755 56.7601 68.9755C57.1074 68.9755 57.389 68.7011 57.389 68.3627V55.8199C57.3891 54.3202 56.2142 53.0829 54.7141 52.9359ZM48.4244 52.9211H38.5761V48.9263C38.5761 46.2808 40.785 44.1285 43.5003 44.1285C46.2155 44.1285 48.4244 46.2808 48.4244 48.9263V52.9211ZM49.6824 52.9211V48.9263C49.6824 45.605 46.9091 42.9027 43.5003 42.9027C40.0914 42.9027 37.3181 45.6049 37.3181 48.9263V52.9211H33.5442V48.9263C33.5442 43.5774 38.0105 39.2257 43.5001 39.2257C48.9897 39.2257 53.456 43.5775 53.456 48.9263V52.9211H49.6824Z" fill="black"/>
<path d="M56.7601 70.2012C56.4127 70.2012 56.1311 70.4756 56.1311 70.814V73.1012C56.1311 74.0238 55.3609 74.7742 54.414 74.7742H32.5862C31.6394 74.7742 30.8692 74.0237 30.8692 73.1012V59.8094C30.8692 59.4709 30.5876 59.1965 30.2403 59.1965C29.8929 59.1965 29.6113 59.4709 29.6113 59.8094V73.1013C29.6113 74.6997 30.9459 76 32.5863 76H54.4141C56.0545 76 57.3891 74.6996 57.3891 73.1013V70.8141C57.389 70.4756 57.1074 70.2012 56.7601 70.2012Z" fill="black"/>
</svg>
