<svg width="115" height="115" viewBox="0 0 115 115" fill="none" xmlns="http://www.w3.org/2000/svg">
<g clip-path="url(#clip0_9_318)">
<path d="M30.4299 70.459C27.166 67.1951 24.4783 63.1634 22.5583 58.9398L9.69531 101.561C8.92744 104.057 11.8072 105.977 13.9189 104.441L26.3981 95.8012C29.4698 93.6893 33.6937 94.8412 35.0375 98.297L40.2212 110.968C41.3731 113.656 45.4048 113.464 46.1727 110.776L54.8121 82.3622C45.2129 81.7863 36.5735 77.1786 30.4299 70.459Z" fill="#FFE100"/>
<path d="M11.4235 1.91979C11.4235 6.14342 7.96777 9.59918 3.74414 9.59918C7.96777 9.59918 11.4235 13.0549 11.4235 17.2786C11.4235 13.0549 14.8793 9.59918 19.1029 9.59918C14.8793 9.5994 11.4235 6.14365 11.4235 1.91979Z" fill="#FFE100"/>
<path d="M9.50364 51.8364C9.50364 52.9883 8.73577 53.7562 7.58385 53.7562C6.43193 53.7562 5.66406 52.9883 5.66406 51.8364C5.66406 50.6844 6.43193 49.9166 7.58385 49.9166C8.73577 49.9166 9.50364 50.6844 9.50364 51.8364Z" fill="#FFE100"/>
<path d="M107.417 40.3172C106.265 40.3172 105.497 39.5493 105.497 38.3974V30.718C105.497 29.5661 106.265 28.7982 107.417 28.7982C108.569 28.7982 109.337 29.5661 109.337 30.718V38.3974C109.337 39.5493 108.569 40.3172 107.417 40.3172Z" fill="#FFE100"/>
<path d="M111.256 36.4774H103.577C102.425 36.4774 101.657 35.7095 101.657 34.5576C101.657 33.4057 102.425 32.6378 103.577 32.6378H111.256C112.408 32.6378 113.176 33.4057 113.176 34.5576C113.176 35.7095 112.408 36.4774 111.256 36.4774Z" fill="#FFE100"/>
<path d="M93.9774 46.0768C93.9774 66.2353 77.6586 82.5541 57.5 82.5541C37.3415 82.5541 21.0225 66.2353 21.0225 46.0768C21.0225 25.9182 37.3412 9.5994 57.4998 9.5994C77.6584 9.5994 93.9774 25.9182 93.9774 46.0768Z" fill="#FFE100"/>
<path d="M92.4415 58.9398C90.5217 63.7394 87.4498 67.9632 83.6102 71.6109C77.6587 77.7545 69.4031 81.7863 60.3799 82.5541L69.0193 110.776C69.7871 113.656 73.8189 113.656 74.9708 110.968L80.1544 98.297C81.4983 95.0331 85.7221 93.6893 88.7938 95.8012L101.273 104.441C103.385 105.977 106.265 104.057 105.497 101.561L92.4415 58.9398Z" fill="#FFE100"/>
<path d="M58.4599 10.1754C57.4999 10.1754 56.5401 10.1754 55.5801 10.3673C74.3948 11.9032 89.1776 27.4541 89.1776 46.6527C89.1776 65.8513 74.3948 81.4022 55.5801 82.9382C56.5401 82.9382 57.4999 83.1301 58.4599 83.1301C78.6185 83.1301 94.9372 66.8113 94.9372 46.6527C94.9372 26.4941 78.6185 10.1754 58.4599 10.1754Z" fill="#FFA800"/>
<path d="M106.457 102.137L93.4016 59.5157C92.4416 61.8196 91.0977 64.1234 89.7539 66.2354L100.697 102.137C100.889 102.713 100.889 103.481 100.505 103.865L102.041 105.017C104.345 106.553 107.225 104.633 106.457 102.137Z" fill="#FFA800"/>
<path d="M57.4998 9.5994C58.4598 9.5994 59.4196 9.5994 60.3796 9.79132C41.5651 11.1351 26.7821 26.8782 26.7821 46.0768C26.7821 65.2753 41.5651 81.0184 60.3796 82.3622C59.4196 82.5541 58.4598 82.5541 57.4998 82.5541C37.3412 82.5541 21.0225 66.2353 21.0225 46.0768C21.0225 25.9182 37.3412 9.5994 57.4998 9.5994Z" fill="white"/>
<path d="M9.69531 101.561L22.5583 58.9398C23.5183 61.2436 24.8622 63.5475 26.206 65.6594L15.4549 101.561C15.263 102.329 15.263 102.905 15.4549 103.481L13.9189 104.632C11.8072 105.977 8.92744 104.057 9.69531 101.561Z" fill="white"/>
<path d="M84.3782 46.0768C84.3782 60.8598 72.2831 72.955 57.5 72.955C42.717 72.955 30.6221 60.8598 30.6221 46.0768C30.6221 31.2937 42.7172 19.1986 57.5003 19.1986C72.2833 19.1986 84.3782 31.2937 84.3782 46.0768Z" fill="#1F1F1F"/>
<path d="M57.4999 84.4741C36.3813 84.4741 19.1025 67.1954 19.1025 46.0768C19.1025 24.9582 36.3813 7.67938 57.4999 7.67938C78.6185 7.67938 95.8973 24.9582 95.8973 46.0768C95.8973 67.1954 78.6185 84.4741 57.4999 84.4741ZM57.4999 11.5192C38.4932 11.5192 22.9423 27.0701 22.9423 46.0768C22.9423 65.0834 38.4932 80.6343 57.4999 80.6343C76.5066 80.6343 92.0575 65.0834 92.0575 46.0768C92.0575 27.0701 76.5066 11.5192 57.4999 11.5192Z" fill="black"/>
<path d="M71.8993 115C69.5955 115 67.6757 113.656 67.0997 111.352L58.4604 82.9384C58.2684 82.3624 58.4604 81.7865 58.6523 81.2105C59.0363 80.6346 59.4201 80.4426 59.9961 80.4426C68.4436 79.8667 76.123 76.219 82.0745 70.0754C85.9143 66.6196 88.6019 62.5879 90.5219 58.1721C90.906 57.4043 91.482 57.0202 92.4417 57.0202C93.2096 57.0202 93.9777 57.5962 94.1696 58.3641L107.033 100.985C107.417 102.329 107.225 103.865 106.265 105.017C105.305 106.169 103.961 106.937 102.425 106.937C101.465 106.937 100.505 106.553 99.7371 106.169L87.2579 97.5293C86.6819 97.1452 85.914 96.7614 84.954 96.7614C83.4181 96.7614 81.8823 97.7214 81.4983 99.0653L76.6987 111.736C75.9311 113.656 74.0113 115 71.8993 115ZM62.8761 84.0901L70.7476 110.2C70.9396 110.968 71.7076 110.968 71.8996 110.968C72.0915 110.968 72.8596 110.968 73.0515 110.2L78.2351 97.5291C79.387 94.6493 82.2668 92.9214 85.3385 92.9214C86.8745 92.9214 88.4102 93.4974 89.7543 94.2652L102.234 102.905C102.425 103.097 102.618 103.097 102.809 103.097C103.001 103.097 103.385 102.905 103.577 102.712C103.769 102.521 103.769 102.328 103.577 102.137L92.0581 64.1232C90.1381 67.3873 87.8343 70.2671 84.9545 72.9549C79.003 78.9065 71.3234 82.9382 62.8761 84.0901Z" fill="black"/>
<path d="M43.1016 115C40.9897 115 39.2618 113.848 38.302 111.928L33.1184 99.2572C32.5424 97.9133 31.1986 96.9533 29.6626 96.9533C28.8948 96.9533 28.1267 97.1452 27.3588 97.7212L14.8796 106.361C12.7677 107.897 9.88787 107.321 8.35213 105.209C7.58426 104.057 7.20021 102.521 7.58426 101.177L20.4473 58.556C21.0232 57.5959 21.7911 57.02 22.5592 57.02C23.3271 57.02 24.0952 57.404 24.479 58.1719C26.2069 62.2036 28.7026 65.8513 31.9665 69.1151C38.1101 75.8347 46.1735 79.8665 55.0049 80.4424C55.5808 80.4424 56.1568 80.8265 56.5408 81.2103C56.9249 81.7862 56.9249 82.3622 56.7327 82.9382L48.0933 111.352C47.3255 113.464 45.4055 115 43.1016 115ZM29.6626 92.9214C32.7343 92.9214 35.6141 94.8412 36.7661 97.5291L41.9497 110.2C42.1416 110.776 42.9097 110.968 43.1016 110.968C43.2935 110.968 44.0616 110.968 44.2535 110.2L52.1251 84.0901C43.1016 82.9382 35.0382 78.5224 28.8948 71.803C26.5909 69.4992 24.6711 67.0034 22.9433 64.1236L11.4241 102.137C11.4241 102.329 11.4241 102.521 11.4241 102.713C11.616 103.097 12.1919 103.289 12.7679 102.905L25.2471 94.2654C26.5909 93.4974 28.1267 92.9214 29.6626 92.9214Z" fill="black"/>
<path d="M11.4234 19.1986C10.2715 19.1986 9.50361 18.4307 9.50361 17.2788C9.50361 14.0149 7.00786 11.5192 3.74401 11.5192C2.59209 11.5192 1.82422 10.7513 1.82422 9.5994C1.82422 8.44748 2.59209 7.67961 3.74401 7.67961C7.00786 7.67961 9.50361 5.18386 9.50361 1.92002C9.50361 0.767871 10.2715 0 11.4234 0C12.5753 0 13.3432 0.767871 13.3432 1.91979C13.3432 5.18364 15.8389 7.67939 19.1028 7.67939C20.2547 7.67939 21.0226 8.44726 21.0226 9.59918C21.0226 10.7511 20.2549 11.5192 19.103 11.5192C15.8392 11.5192 13.3434 14.0149 13.3434 17.2788C13.3434 18.4307 12.5753 19.1986 11.4234 19.1986ZM9.50361 9.5994C10.2715 10.1754 10.8474 10.7513 11.4234 11.5192C11.9994 10.7513 12.5753 10.1754 13.3432 9.5994C12.5753 9.02344 11.9994 8.44748 11.4234 7.67961C10.8474 8.44748 10.2715 9.02344 9.50361 9.5994Z" fill="black"/>
<path d="M105.497 38.3974C104.345 38.3974 103.577 37.6295 103.577 36.4776V28.798C103.577 27.6461 104.345 26.8782 105.497 26.8782C106.649 26.8782 107.417 27.6461 107.417 28.798V36.4774C107.417 37.6293 106.649 38.3974 105.497 38.3974Z" fill="black"/>
<path d="M109.336 34.5576H101.657C100.505 34.5576 99.7373 33.7897 99.7373 32.6378C99.7373 31.4859 100.505 30.718 101.657 30.718H109.336C110.488 30.718 111.256 31.4859 111.256 32.6378C111.256 33.7897 110.488 34.5576 109.336 34.5576Z" fill="black"/>
<path d="M7.58372 49.9166C7.58372 51.0685 6.81585 51.8364 5.66393 51.8364C4.51201 51.8364 3.74414 51.0685 3.74414 49.9166C3.74414 48.7647 4.51201 47.9968 5.66393 47.9968C6.81585 47.9968 7.58372 48.7647 7.58372 49.9166Z" fill="black"/>
<path d="M57.5001 74.8747C41.5652 74.8747 28.7021 62.0117 28.7021 46.0768C28.7021 30.1418 41.5652 17.2788 57.5001 17.2788C73.4351 17.2788 86.2981 30.1418 86.2981 46.0768C86.2981 62.0117 73.4351 74.8747 57.5001 74.8747ZM57.5001 21.1186C43.6771 21.1186 32.542 32.2537 32.542 46.0768C32.542 59.8998 43.6771 71.0349 57.5001 71.0349C71.3232 71.0349 82.4585 59.8998 82.4585 46.0768C82.4585 32.2537 71.3232 21.1186 57.5001 21.1186Z" fill="black"/>
<g clip-path="url(#clip1_9_318)">
<path d="M35.5406 33.61C42.5135 21.3409 58.1002 17.0979 70.1776 24.1816C82.2551 31.2654 86.4316 47.0991 79.4587 59.3687C72.4857 71.6377 56.8993 75.8804 44.8215 68.7968C32.7441 61.7133 28.5677 45.8792 35.5406 33.61Z" fill="#FFF07C"/>
<path d="M68.9026 37.5786C69.8679 38.5586 69.8677 40.1625 68.903 41.1426L54.8683 55.4L54.8681 55.4002V55.4005L54.8226 55.4455L54.776 55.4891V55.4893L54.7285 55.5313V55.5317L54.6803 55.5723V55.5725L54.6314 55.6121L54.5817 55.6502L54.5312 55.6866L54.4799 55.7217V55.7219L54.428 55.7556L54.3755 55.788L54.3224 55.8186L54.2688 55.8481V55.8483L54.2144 55.8762L54.1598 55.9028L54.1043 55.9276V55.9278L54.0486 55.9516L53.9925 55.9736V55.9738L53.9354 55.9945V55.9947L53.8783 56.0138L53.821 56.0317L53.7633 56.0481L53.7053 56.0632V56.0634L53.6469 56.0769L53.5882 56.0892L53.5294 56.0998V56.1001L53.4706 56.1091L53.4112 56.1171L53.3518 56.1235L53.2926 56.1285V56.1287L53.233 56.1321L53.1735 56.1341L53.1139 56.135L53.0543 56.1341L52.9949 56.1321L52.9353 56.1287V56.1285L52.8759 56.1235L52.8167 56.1171L52.7575 56.1091L52.6985 56.1001V56.0998L52.6395 56.0892L52.5809 56.0769L52.5224 56.0634V56.0632L52.4646 56.0481L52.4069 56.0317L52.3494 56.0138L52.2927 55.9947V55.9945L52.2356 55.9738V55.9736L52.1796 55.9516L52.1236 55.9278V55.9276L52.0684 55.9028L52.0136 55.8762L51.9593 55.8481L51.9057 55.8186L51.8526 55.788L51.8 55.7556L51.748 55.7217L51.6968 55.6866L51.6463 55.6502L51.5965 55.6121L51.5476 55.5723L51.4994 55.5312L51.4519 55.489L51.4055 55.4454L51.3599 55.4001L46.097 50.0535C45.1317 49.073 45.1317 47.4695 46.097 46.4892C47.0619 45.5087 48.6405 45.5087 49.6054 46.489L53.1139 50.0535L65.3942 37.5785C66.3591 36.5984 67.9378 36.5984 68.9026 37.5786Z" fill="#00E588"/>
<path d="M52.3637 65.9614C45.5377 64.103 40.1608 58.6411 38.3316 51.7069C38.1741 51.1093 37.5692 50.7546 36.9815 50.915C36.3934 51.0751 36.0443 51.6892 36.2019 52.2865C38.2343 59.9914 44.2084 66.0602 51.7931 68.125C51.8886 68.1511 51.9847 68.1635 52.0791 68.1635C52.5658 68.1635 53.0113 67.8335 53.1433 67.3331C53.3009 66.7356 52.9518 66.1215 52.3637 65.9614Z" fill="#000003"/>
<path d="M63.2064 24.8534C62.6184 24.6934 62.0139 25.048 61.8562 25.6454C61.6986 26.2427 62.0477 26.8568 62.6358 27.0169C69.462 28.8753 74.8387 34.3372 76.6675 41.2713C76.7995 41.7717 77.2449 42.1018 77.7317 42.1018C77.826 42.1018 77.9222 42.0894 78.0177 42.0633C78.6058 41.9031 78.9549 41.2892 78.7973 40.6917C76.7653 32.9871 70.7912 26.9182 63.2064 24.8534Z" fill="#000003"/>
<path d="M56.8405 66.6371C56.5652 66.6277 56.2874 66.6124 56.0151 66.5917C55.4103 66.5446 54.8787 67.0078 54.8332 67.6247C54.7877 68.2415 55.2428 68.7791 55.8501 68.8253C56.1525 68.8484 56.4608 68.8653 56.7662 68.8758C56.7788 68.8762 56.7914 68.8764 56.804 68.8764C57.3957 68.8764 57.8852 68.3996 57.9052 67.7942C57.9258 67.1761 57.449 66.658 56.8405 66.6371Z" fill="#000003"/>
<path d="M58.1576 26.3414C58.4321 26.3509 58.7105 26.3663 58.9846 26.3868C59.0124 26.3889 59.04 26.3899 59.0674 26.3899C59.6391 26.3899 60.1226 25.9414 60.1656 25.3528C60.2107 24.7359 59.755 24.1987 59.1478 24.153C58.8444 24.1301 58.5367 24.1131 58.2328 24.1027C57.6252 24.0796 57.1141 24.5658 57.0934 25.1838C57.0727 25.8021 57.5492 26.3203 58.1576 26.3414Z" fill="#000003"/>
<path d="M67.1484 35.7234C66.1893 35.7234 65.2895 36.101 64.6145 36.7866L53.1139 48.4699L50.3848 45.6972C49.7099 45.0117 48.8101 44.6342 47.8511 44.6342C46.892 44.6342 45.9921 45.0118 45.3173 45.6973C44.6423 46.3831 44.2705 47.2972 44.2705 48.2714C44.2705 49.2456 44.6422 50.1598 45.3172 50.8456L50.5878 56.1997L50.6333 56.245C50.6412 56.2529 50.6493 56.2606 50.6575 56.2683L50.7039 56.3118C50.7106 56.3184 50.7176 56.3246 50.7247 56.3308L50.7723 56.3731C50.7788 56.3788 50.7852 56.3846 50.7918 56.39L50.84 56.4311C50.8464 56.4364 50.8527 56.4418 50.8593 56.4471L50.9081 56.4868C50.9167 56.4938 50.9255 56.5005 50.9342 56.5073L50.9839 56.5455C50.9919 56.5516 51.0001 56.5574 51.0082 56.5634L51.0587 56.5998C51.0657 56.6048 51.0726 56.6097 51.0796 56.6145L51.1307 56.6497C51.1379 56.6547 51.1453 56.6595 51.1525 56.6644L51.2046 56.6983C51.2125 56.7033 51.2204 56.7083 51.2283 56.7133L51.2809 56.7456C51.2896 56.7511 51.2986 56.7563 51.3075 56.7617L51.3606 56.7923C51.3676 56.7963 51.3747 56.8003 51.3817 56.8043L51.4353 56.8338C51.4431 56.8379 51.4507 56.8421 51.4584 56.846L51.5127 56.8742C51.5215 56.8787 51.5303 56.8831 51.5392 56.8874L51.5941 56.9139C51.602 56.9178 51.6102 56.9216 51.6184 56.9254L51.6735 56.9505C51.6819 56.9542 51.6904 56.958 51.6988 56.9617L51.7548 56.9854C51.7621 56.9885 51.7695 56.9916 51.7767 56.9944L51.8327 57.0167C51.8418 57.0201 51.8508 57.0237 51.8599 57.0271L51.917 57.0482C51.9262 57.0514 51.9353 57.0548 51.9445 57.0578L52.0013 57.0769C52.0093 57.0797 52.0174 57.0823 52.0256 57.0849L52.0831 57.1028C52.0921 57.1056 52.1011 57.1083 52.1103 57.1109L52.1682 57.1273C52.1743 57.129 52.1804 57.1307 52.1866 57.1323L52.2444 57.1477C52.2559 57.1507 52.2677 57.1536 52.2792 57.1563L52.3378 57.1697C52.3442 57.1712 52.3505 57.1725 52.3569 57.1738L52.4155 57.1861C52.4262 57.1884 52.4368 57.1905 52.4474 57.1924L52.4798 57.1981C52.4975 57.2018 52.5154 57.2051 52.5336 57.2079L52.5926 57.2169C52.5993 57.218 52.6059 57.2189 52.6126 57.2198L52.6718 57.2277C52.6816 57.2291 52.6914 57.2302 52.7013 57.2313L52.7604 57.2377C52.7672 57.2383 52.7738 57.2391 52.7806 57.2396L52.84 57.2448C52.8514 57.246 52.8626 57.2467 52.874 57.2473L52.9336 57.2506C52.9414 57.251 52.9494 57.2514 52.9571 57.2518L53.0166 57.2539C53.024 57.2541 53.0313 57.2543 53.0386 57.2544L53.0982 57.2553C53.1034 57.2554 53.1089 57.2554 53.1142 57.2554C53.1194 57.2554 53.1249 57.2554 53.1302 57.2553L53.1898 57.2544C53.197 57.2543 53.2045 57.2541 53.2117 57.2539L53.2712 57.2518C53.2805 57.2515 53.2896 57.251 53.2989 57.2504L53.3585 57.2468C53.3672 57.2463 53.3761 57.2456 53.3848 57.2448L53.444 57.2398C53.4518 57.2392 53.4595 57.2383 53.4673 57.2376L53.5267 57.2312C53.5365 57.23 53.5463 57.229 53.556 57.2277L53.6154 57.2198C53.6225 57.2187 53.6296 57.2178 53.6366 57.2167L53.6954 57.2077C53.7135 57.2049 53.7315 57.2016 53.7492 57.1979L53.7815 57.1921C53.7917 57.1902 53.8021 57.1883 53.8122 57.186L53.8709 57.1737C53.879 57.1719 53.887 57.1702 53.895 57.1683L53.9534 57.1547C53.9618 57.1527 53.9702 57.1507 53.9786 57.1484L54.0366 57.1333C54.0446 57.1312 54.0527 57.129 54.0607 57.1267L54.1184 57.1103C54.1278 57.1077 54.1369 57.1049 54.1462 57.1021L54.2036 57.0841C54.2117 57.0816 54.2198 57.0789 54.2281 57.0762L54.2852 57.0568C54.2941 57.0537 54.3032 57.0505 54.312 57.0472L54.3691 57.0261C54.3764 57.0233 54.3839 57.0205 54.3915 57.0176L54.4476 56.9956C54.4578 56.9915 54.4683 56.9873 54.4783 56.9829L54.5341 56.959C54.5392 56.9568 54.5444 56.9545 54.5495 56.9522L54.6049 56.9274C54.6158 56.9225 54.6262 56.9176 54.6367 56.9125L54.6913 56.8859C54.6989 56.8822 54.7065 56.8784 54.714 56.8745L54.7685 56.8464C54.7767 56.8421 54.785 56.8377 54.7933 56.8332L54.8469 56.8037C54.8539 56.7999 54.861 56.7959 54.868 56.7918L54.9212 56.7611C54.9305 56.7558 54.9395 56.7503 54.9486 56.7447L55.0012 56.7123C55.0094 56.7073 55.0178 56.702 55.0259 56.6967L55.0778 56.6628C55.0839 56.6588 55.0899 56.6547 55.096 56.6507L55.1473 56.6156C55.1549 56.6103 55.1625 56.605 55.17 56.5995L55.2205 56.5631C55.229 56.5569 55.2373 56.5508 55.2457 56.5444L55.2953 56.5063C55.3038 56.4998 55.3122 56.4932 55.3206 56.4865L55.3694 56.4468C55.3747 56.4424 55.38 56.4381 55.3853 56.4337L55.4336 56.3931C55.4474 56.3813 55.4612 56.3693 55.4745 56.3568L55.5046 56.3298C55.5103 56.3247 55.5161 56.3195 55.5216 56.3143L55.5683 56.2707C55.5767 56.2628 55.585 56.2548 55.5933 56.2467L55.6387 56.2017C55.6473 56.1933 55.6557 56.1847 55.6639 56.1759L69.6831 41.9345C70.3578 41.2488 70.7294 40.3347 70.7293 39.3605C70.7293 38.3862 70.3576 37.4719 69.6828 36.7866C69.0074 36.101 68.1075 35.7234 67.1484 35.7234ZM68.1234 40.3508L54.0824 54.6146L54.0042 54.6871L53.8167 54.8225L53.6035 54.9259L53.3376 54.9973L53.1139 55.0154L53.0811 55.015L52.8475 54.9896L52.6226 54.9251L52.3834 54.8054L52.1893 54.6566L46.8764 49.2617C46.6178 48.9989 46.4753 48.6474 46.4753 48.2713C46.4753 47.8955 46.6178 47.5438 46.8765 47.281C47.1349 47.0184 47.4809 46.8738 47.8512 46.8738C48.2213 46.8738 48.5674 47.0184 48.8259 47.2808L52.3344 50.8454C52.5411 51.0555 52.8216 51.1736 53.114 51.1736C53.4063 51.1736 53.6867 51.0555 53.8935 50.8455L66.1738 38.3703C66.4323 38.1077 66.7784 37.9631 67.1486 37.9631C67.5187 37.9631 67.8648 38.1077 68.1235 38.3705C68.3819 38.633 68.5243 38.9845 68.5243 39.3605C68.5239 39.7367 68.3817 40.0884 68.1234 40.3508Z" fill="#000003"/>
</g>
</g>
<defs>
<clipPath id="clip0_9_318">
<rect width="115" height="115" fill="white"/>
</clipPath>
<clipPath id="clip1_9_318">
<rect width="51.383" height="52.1986" fill="white" transform="translate(31.8086 20.3901)"/>
</clipPath>
</defs>
</svg>
