<svg width="549" height="402" viewBox="0 0 549 402" fill="none" xmlns="http://www.w3.org/2000/svg">
<g clip-path="url(#clip0_18_325)">
<path opacity="0.2" d="M270.105 363.935C257.454 363.935 245.667 363.685 233.922 362.498C217.144 360.802 203.328 357.369 191.679 352.001C181.611 347.361 172.796 341.056 164.271 334.958C155.412 328.62 146.254 322.068 135.7 317.406C111.633 306.777 82.9584 306.861 60.6625 308.124C59.1263 308.211 57.5797 308.303 56.0297 308.398C40.6365 309.33 24.7197 310.292 10.7215 305.302C0.86351 301.786 -6.89682 295.756 -15.2978 288.818C-22.7206 282.689 -31.125 275.341 -37.1873 267.311C-43.8488 258.485 -46.687 250.211 -45.8604 242.013C-44.4068 227.585 -31.6727 215.839 -17.6194 204.088L17.2935 174.891C23.1628 169.985 29.8141 164.421 32.5731 157.521C38.8144 141.931 23.497 126.616 13.8112 118.871C11.0384 116.654 8.08651 114.443 5.23107 112.308C-5.35027 104.387 -16.2898 96.1963 -21.3187 85.3765C-26.6266 73.9509 -25.7689 61.1724 -18.7009 46.305C-12.525 33.3202 -2.7566 20.8324 6.68806 8.75756C11.7927 2.23253 16.615 -3.93121 20.5037 -9.74452C25.4775 -17.1796 32.0667 -23.5253 40.0888 -28.6025C47.3394 -33.1906 56.0091 -36.8987 65.8567 -39.6233C81.7976 -44.0268 100.956 -46.0533 126.152 -45.9989C140.68 -45.9663 153.649 -45.5915 165.232 -41.3075C176.169 -37.2654 184.848 -29.9254 192.505 -23.452L255.453 29.7615C264.029 37.0119 273.753 45.2293 286.029 49.6137C296.714 53.4304 309.603 54.5632 325.43 53.08C333.655 52.3085 341.994 50.9312 350.058 49.6002C366.267 46.9244 383.028 44.1563 399.548 46.2235C411.128 47.6714 422.508 51.4175 434.333 57.6736C445.882 63.783 456.123 71.4055 463.752 77.3628C476.056 86.9683 487.471 97.6306 487.698 110.485C487.846 118.925 483 127.031 478.308 134.868C472.374 144.789 466.769 154.158 470.6 164.014C473.207 170.721 479.886 175.923 485.783 180.514L538.307 221.413C547.297 228.411 556.552 236.031 563.355 244.313C571.136 253.786 574.591 262.742 573.919 271.69C572.679 288.169 557.183 303.387 527.86 316.92C516.442 322.19 504.066 326.971 490.932 326.273C478.263 325.602 466.783 319.9 455.682 314.388C441.845 307.518 428.777 301.029 413.856 303.707C405.413 305.223 398.366 309.656 393.169 313.351C386.132 318.352 379.566 324.081 373.222 329.622C360.253 340.942 346.844 352.648 328.861 358.529C313.075 363.693 295.057 363.801 279.161 363.899C276.088 363.918 273.071 363.932 270.102 363.932L270.105 363.935ZM78.9801 307.141C86.3546 307.141 93.0782 307.456 99.4814 308.092C113.573 309.491 125.508 312.416 135.965 317.037C146.57 321.72 155.753 328.291 164.633 334.645C173.137 340.73 181.931 347.019 191.951 351.637C218.456 363.85 252.115 363.644 279.161 363.481C295.009 363.386 312.968 363.274 328.658 358.143C346.527 352.297 359.895 340.63 372.826 329.343C379.181 323.793 385.753 318.056 392.814 313.041C398.06 309.314 405.179 304.837 413.742 303.3C428.881 300.58 442.038 307.116 455.971 314.035C467.017 319.52 478.439 325.192 490.974 325.857C503.966 326.547 516.252 321.796 527.595 316.562C556.755 303.104 572.163 288.003 573.389 271.671C574.853 252.194 555.857 235.675 537.935 221.72L485.411 180.821C479.472 176.197 472.739 170.954 470.093 164.144C466.201 154.134 471.85 144.691 477.829 134.695C482.493 126.898 487.315 118.838 487.167 110.496C486.943 97.7936 475.601 87.2128 463.38 77.6698C446.017 64.1117 424.847 49.8229 399.468 46.6473C383.042 44.5909 366.333 47.3509 350.172 50.0212C342.098 51.355 333.748 52.7323 325.499 53.5065C309.568 55.0006 296.586 53.8542 285.812 50.0049C273.44 45.5852 263.678 37.3352 255.067 30.0549L192.12 -23.1586C184.494 -29.6049 175.852 -36.9122 165.008 -40.9191C153.521 -45.165 140.615 -45.5371 126.152 -45.5697C125.78 -45.5697 125.404 -45.5697 125.032 -45.5697C87.5602 -45.5697 42.2451 -41.3157 20.986 -9.54079C17.0903 -3.71661 12.2646 2.45256 7.15307 8.98575C-11.4883 32.8149 -32.613 59.8223 -20.8089 85.2352C-15.8248 95.9627 -4.93004 104.118 5.60651 112.006C8.4654 114.144 11.4173 116.358 14.2004 118.58C21.544 124.451 27.2238 130.734 30.6304 136.751C34.8395 144.189 35.6662 151.222 33.0932 157.654C30.2963 164.647 23.6003 170.245 17.6931 175.184L-17.2198 204.381C-31.2043 216.075 -43.8764 227.759 -45.3162 242.051C-47.0625 259.387 -31.7313 274.638 -14.9017 288.533C-6.5386 295.441 1.1804 301.441 10.9523 304.924C24.8265 309.871 40.6744 308.912 55.9987 307.983C57.5487 307.89 59.0953 307.795 60.6315 307.708C67.2345 307.334 73.3036 307.146 78.9835 307.146L78.9801 307.141Z" fill="#FF9C27"/>
<path opacity="0.2" d="M274.307 368.12C261.917 368.12 250.371 367.876 238.87 366.713C222.44 365.053 208.907 361.69 197.499 356.434C187.637 351.889 179.006 345.715 170.656 339.741C161.98 333.534 153.01 327.117 142.677 322.551C119.11 312.141 91.0242 312.226 69.1899 313.462C67.6847 313.546 66.1726 313.638 64.6536 313.73C49.5772 314.643 33.9877 315.586 20.2788 310.696C10.624 307.254 3.02556 301.349 -5.20666 294.552C-12.4744 288.548 -20.7067 281.352 -26.6449 273.488C-33.1687 264.844 -35.9483 256.738 -35.1389 248.708C-33.7163 234.577 -21.244 223.073 -7.48 211.563L26.713 182.969C32.4583 178.163 38.9718 172.717 41.6757 165.961C47.7861 150.694 32.7856 135.696 23.303 128.112C20.5853 125.939 17.6954 123.776 14.902 121.685C4.54111 113.926 -6.17455 105.905 -11.1001 95.3075C-16.2978 84.1182 -15.4608 71.6006 -8.53399 57.0401C-2.48555 44.3215 7.07967 32.0945 16.3314 20.2669C21.3293 13.8749 26.0517 7.83887 29.8612 2.1478C34.7351 -5.13514 41.1866 -11.3505 49.0433 -16.3217C56.1458 -20.8175 64.6363 -24.4467 74.2808 -27.1144C89.8875 -31.4309 108.643 -33.4085 133.329 -33.3596C147.558 -33.327 160.258 -32.9603 171.607 -28.766C182.316 -24.8053 190.82 -17.6202 198.319 -11.2772L259.967 40.8389C268.368 47.9398 277.889 55.9888 289.91 60.2809C300.371 64.0188 312.995 65.1272 328.495 63.6738C336.551 62.9186 344.718 61.5713 352.613 60.2673C368.488 57.6459 384.901 54.9348 401.083 56.9613C412.425 58.3794 423.568 62.0494 435.152 68.1751C446.463 74.1595 456.494 81.6245 463.965 87.4595C476.013 96.8695 487.194 107.312 487.418 119.9C487.562 128.166 482.816 136.107 478.221 143.783C472.41 153.498 466.92 162.674 470.671 172.323C473.223 178.892 479.768 183.985 485.537 188.481L536.98 228.536C545.784 235.389 554.846 242.852 561.511 250.966C569.134 260.245 572.516 269.014 571.858 277.78C570.646 293.922 555.466 308.827 526.746 322.081C515.562 327.242 503.438 331.92 490.576 331.241C478.166 330.584 466.923 325.001 456.049 319.601C442.499 312.872 429.706 306.518 415.091 309.142C406.825 310.626 399.922 314.969 394.835 318.585C387.942 323.483 381.515 329.095 375.298 334.52C362.598 345.606 349.464 357.072 331.853 362.831C316.391 367.889 298.745 367.995 283.176 368.09C280.166 368.109 277.21 368.123 274.303 368.123L274.307 368.12ZM87.1251 312.489C94.3481 312.489 100.934 312.799 107.203 313.421C121.005 314.79 132.692 317.656 142.935 322.181C153.32 326.77 162.317 333.202 171.015 339.426C179.343 345.383 187.954 351.544 197.768 356.067C223.725 368.028 256.688 367.827 283.176 367.667C298.697 367.572 316.284 367.466 331.65 362.44C349.151 356.716 362.243 345.288 374.902 334.235C381.126 328.802 387.563 323.181 394.476 318.267C399.615 314.616 406.587 310.232 414.974 308.727C429.803 306.065 442.692 312.465 456.335 319.24C467.151 324.61 478.338 330.165 490.611 330.817C503.335 331.494 515.366 326.84 526.474 321.714C555.029 308.537 570.119 293.745 571.321 277.753C572.754 258.681 554.15 242.501 536.601 228.834L485.158 188.78C479.341 184.251 472.748 179.117 470.154 172.445C466.341 162.641 471.876 153.392 477.732 143.601C482.299 135.968 487.022 128.074 486.877 119.905C486.656 107.467 475.552 97.1058 463.582 87.7583C446.577 74.4801 425.845 60.4874 400.993 57.377C384.908 55.364 368.543 58.067 352.716 60.6802C344.807 61.9869 336.63 63.337 328.55 64.0949C324.151 64.5078 319.98 64.7142 316.026 64.7142C305.951 64.7142 297.26 63.3723 289.683 60.6667C277.565 56.3393 268.003 48.2577 259.571 41.1269L197.923 -10.9892C190.455 -17.3024 181.992 -24.4576 171.373 -28.383C160.127 -32.5419 147.486 -32.9059 133.322 -32.9385C132.96 -32.9385 132.588 -32.9385 132.227 -32.9385C95.5296 -32.9385 51.1513 -28.7741 30.3331 2.3461C26.5167 8.05075 21.7909 14.0923 16.7861 20.4896C-1.46944 43.8271 -22.1602 70.2776 -10.5972 95.1608C-5.71644 105.665 4.951 113.652 15.2706 121.378C18.0674 123.472 20.9642 125.64 23.6853 127.816C30.8773 133.567 36.4436 139.72 39.7778 145.612C43.9008 152.897 44.7102 159.786 42.1889 166.086C39.4471 172.934 32.8889 178.419 27.1022 183.257L-7.09078 211.851C-20.7859 223.304 -33.1962 234.743 -34.605 248.738C-36.3134 265.716 -21.2991 280.649 -4.82088 294.259C3.37 301.023 10.9306 306.898 20.4992 310.31C34.0876 315.154 49.6048 314.214 64.6157 313.307C66.1347 313.214 67.6468 313.122 69.1554 313.038C75.6207 312.671 81.5658 312.489 87.132 312.489H87.1251Z" fill="#BE7217"/>
<path opacity="0.2" d="M278.509 372.309C266.381 372.309 255.076 372.07 243.82 370.932C227.734 369.305 214.487 366.015 203.317 360.867C193.662 356.418 185.213 350.373 177.039 344.525C168.545 338.448 159.765 332.167 149.649 327.699C126.578 317.509 99.0877 317.591 77.7149 318.802C76.2407 318.886 74.7596 318.976 73.275 319.066C58.5156 319.959 43.2567 320.883 29.8302 316.097C20.3787 312.725 12.9387 306.945 4.87867 300.292C-2.23755 294.416 -10.2941 287.37 -16.1083 279.671C-22.4978 271.206 -25.2154 263.272 -24.4267 255.41C-23.0317 241.575 -10.8211 230.312 2.65356 219.044L36.1267 191.053C41.7514 186.348 48.1271 181.019 50.7724 174.407C56.752 159.466 42.0718 144.783 32.7856 137.362C30.1264 135.235 27.2951 133.119 24.5602 131.07C14.4163 123.475 3.92456 115.622 -0.89422 105.247C-5.98511 94.2916 -5.16189 82.0374 1.61678 67.784C7.53778 55.3342 16.9032 43.3626 25.9587 31.7849C30.8532 25.5288 35.4757 19.6204 39.2026 14.0489C43.9731 6.91804 50.2902 0.835796 57.9817 -4.03217C64.9326 -8.43291 73.2475 -11.9888 82.6921 -14.5994C97.9717 -18.8235 116.341 -20.7658 140.497 -20.7142C154.426 -20.6843 166.861 -20.323 177.969 -16.2157C188.454 -12.3392 196.779 -5.3035 204.119 0.903709L264.469 51.9196C272.691 58.8711 282.012 66.749 293.778 70.9514C304.018 74.6078 316.374 75.6944 331.546 74.2737C339.431 73.5348 347.425 72.2146 355.155 70.9378C370.696 68.3707 386.764 65.7194 402.605 67.6997C413.71 69.0879 424.619 72.6791 435.958 78.6771C447.032 84.5339 456.848 91.844 464.164 97.5568C475.962 106.768 486.905 116.991 487.125 129.318C487.266 137.411 482.62 145.182 478.121 152.699C472.431 162.21 467.058 171.19 470.73 180.636C473.23 187.066 479.633 192.05 485.282 196.451L535.64 235.664C544.258 242.373 553.131 249.678 559.658 257.621C567.119 266.705 570.432 275.292 569.788 283.873C568.6 299.675 553.741 314.268 525.624 327.242C514.674 332.295 502.808 336.878 490.211 336.21C478.063 335.566 467.054 330.1 456.411 324.814C443.15 318.229 430.622 312.008 416.321 314.575C408.23 316.029 401.475 320.277 396.491 323.82C389.744 328.614 383.451 334.107 377.368 339.42C364.933 350.273 352.079 361.497 334.836 367.137C319.697 372.086 302.424 372.192 287.185 372.285C284.237 372.304 281.347 372.315 278.498 372.315L278.509 372.309ZM95.2712 317.841C102.343 317.841 108.787 318.145 114.925 318.753C128.438 320.095 139.88 322.901 149.907 327.329C160.075 331.82 168.879 338.119 177.394 344.212C185.547 350.045 193.975 356.075 203.582 360.503C228.991 372.211 261.259 372.016 287.185 371.855C302.375 371.763 319.594 371.657 334.636 366.738C351.765 361.136 364.582 349.947 376.975 339.13C383.068 333.811 389.372 328.31 396.137 323.499C401.165 319.924 407.992 315.632 416.204 314.157C430.722 311.549 443.339 317.816 456.7 324.45C467.289 329.709 478.238 335.145 490.253 335.78C502.704 336.44 514.481 331.888 525.358 326.87C553.31 313.97 568.08 299.493 569.258 283.841C570.663 265.17 552.449 249.336 535.271 235.957L484.914 196.744C479.22 192.311 472.765 187.283 470.227 180.752C466.496 171.152 471.911 162.098 477.646 152.512C482.117 145.039 486.739 137.313 486.598 129.315C486.381 117.143 475.514 106.997 463.796 97.8502C447.152 84.8517 426.854 71.1551 402.529 68.1099C386.785 66.1405 370.765 68.7863 355.272 71.3426C347.532 72.622 339.524 73.9423 331.615 74.6839C316.339 76.1155 303.894 75.018 293.561 71.3263C281.695 67.0885 272.336 59.1781 264.08 52.1967L203.73 1.18079C196.421 -4.99925 188.133 -12.0024 177.742 -15.8462C166.733 -19.9156 154.361 -20.2741 140.493 -20.304C104.358 -20.3855 60.2585 -16.5308 39.6779 14.2336C35.9407 19.8187 31.3148 25.7325 26.4168 31.9941C8.547 54.8371 -11.7063 80.7308 -0.38789 105.09C4.38955 115.372 14.8331 123.19 24.9322 130.752C27.6706 132.803 30.5053 134.925 33.1713 137.055C40.2118 142.683 45.6609 148.709 48.9262 154.478C52.9631 161.612 53.7553 168.357 51.2857 174.526C48.6024 181.23 42.182 186.601 36.5159 191.336L3.04278 219.327C-10.363 230.538 -22.5116 241.735 -23.8928 255.434C-25.5668 272.051 -10.8693 286.669 5.26445 299.99C13.2831 306.611 20.6818 312.364 30.0472 315.703C43.3462 320.443 58.5362 319.525 73.2302 318.637C74.7182 318.547 76.1993 318.457 77.6736 318.373C84.0044 318.014 89.8221 317.835 95.2678 317.835L95.2712 317.841Z" fill="#955E1D"/>
<path opacity="0.2" d="M282.708 376.495C270.841 376.495 259.781 376.262 248.766 375.148C233.025 373.556 220.063 370.334 209.134 365.3C199.686 360.949 191.416 355.032 183.421 349.311C175.113 343.367 166.52 337.22 156.624 332.849C134.052 322.88 107.155 322.958 86.2399 324.143C84.7967 324.224 83.35 324.311 81.8965 324.401C67.4539 325.276 52.5223 326.177 39.3851 321.494C30.1334 318.196 22.8553 312.538 14.9709 306.026C-0.897636 292.922 -15.3574 278.53 -13.7041 262.106C-12.3401 248.567 -0.391303 237.546 12.794 226.52L45.5472 199.132C51.0515 194.53 57.2894 189.312 59.8796 182.844C65.7317 168.227 51.3649 153.862 42.2819 146.6C39.6779 144.52 36.912 142.447 34.2323 140.442C24.3054 133.01 14.0409 125.328 9.32203 115.173C4.34137 104.454 5.14392 92.4606 11.7779 78.5141C17.5715 66.3306 26.7337 54.617 35.5963 43.2892C40.384 37.1689 44.9066 31.3855 48.5543 25.9335C53.2215 18.9548 59.4043 13.0029 66.9304 8.24092C73.7331 3.93527 81.8689 0.455433 91.1104 -2.09808C106.059 -6.23259 124.029 -8.13686 147.672 -8.07981C161.301 -8.04993 173.47 -7.69678 184.341 -3.67908C194.602 0.115873 202.745 6.99949 209.933 13.0736L268.985 62.992C277.031 69.7941 286.149 77.5008 297.66 81.6136C307.68 85.1912 319.766 86.2561 334.612 84.8625C342.327 84.14 350.15 82.8469 357.714 81.6C372.921 79.09 388.645 76.493 404.148 78.4326C415.016 79.7935 425.69 83.306 436.788 89.1763C447.624 94.9082 457.231 102.061 464.388 107.649C475.931 116.662 486.643 126.667 486.856 138.728C486.998 146.649 482.448 154.253 478.049 161.609C472.483 170.913 467.227 179.701 470.819 188.94C473.265 195.229 479.53 200.107 485.055 204.41L534.328 242.778C542.76 249.344 551.443 256.491 557.829 264.263C565.131 273.151 568.373 281.556 567.742 289.953C566.578 305.418 552.039 319.696 524.525 332.393C514.515 337.014 503.717 341.232 492.285 341.232C491.482 341.232 490.68 341.211 489.87 341.17C477.98 340.54 467.209 335.191 456.793 330.019C443.818 323.575 431.563 317.49 417.568 320C409.653 321.421 403.043 325.58 398.169 329.043C391.566 333.735 385.411 339.111 379.455 344.307C367.289 354.929 354.71 365.909 337.836 371.429C323.021 376.272 306.12 376.376 291.208 376.468C288.322 376.484 285.491 376.495 282.708 376.495ZM103.417 323.192C110.337 323.192 116.644 323.488 122.651 324.086C135.871 325.398 147.069 328.144 156.882 332.477C166.833 336.872 175.448 343.036 183.78 348.996C191.757 354.703 200.003 360.604 209.403 364.934C234.265 376.389 265.837 376.196 291.205 376.042C306.068 375.952 322.915 375.849 337.633 371.035C354.393 365.553 366.931 354.608 379.059 344.022C385.021 338.817 391.187 333.433 397.811 328.728C402.733 325.229 409.411 321.03 417.451 319.587C431.659 317.036 444.007 323.168 457.079 329.66C467.44 334.805 478.152 340.124 489.905 340.746C502.088 341.393 513.609 336.937 524.249 332.026C551.598 319.405 566.048 305.241 567.201 289.926C568.576 271.66 550.758 256.165 533.949 243.077L484.676 204.709C479.103 200.371 472.786 195.451 470.302 189.059C466.651 179.663 471.949 170.804 477.563 161.424C481.938 154.114 486.46 146.554 486.322 138.731C486.112 126.822 475.476 116.896 464.013 107.945C447.727 95.226 427.87 81.8255 404.069 78.8455C388.662 76.9168 372.99 79.5056 357.831 82.0102C350.257 83.2598 342.424 84.5556 334.684 85.2809C319.739 86.6826 307.556 85.6069 297.446 81.9966C285.835 77.8485 276.676 70.1092 268.599 63.2799L209.548 13.3615C202.393 7.3146 194.289 0.463585 184.121 -3.29605C173.35 -7.27844 161.243 -7.62615 147.678 -7.65875C112.342 -7.73753 69.1761 -3.96703 49.0365 26.1318C45.3819 31.5974 40.8525 37.3835 36.0613 43.512C18.5773 65.8633 -1.23864 91.1974 9.83181 115.029C14.5059 125.088 24.7256 132.738 34.6077 140.138C37.2875 142.145 40.0603 144.218 42.6677 146.304C49.5566 151.813 54.8886 157.708 58.085 163.353C62.0358 170.335 62.8108 176.933 60.3963 182.972C57.7681 189.532 51.4889 194.786 45.9434 199.423L13.1901 226.811C0.0736961 237.78 -11.8131 248.735 -13.1633 262.139C-14.7994 278.397 -0.418857 292.699 15.3636 305.733C23.21 312.212 30.4503 317.841 39.6125 321.106C52.6256 325.746 67.4884 324.844 81.862 323.974C83.3156 323.887 84.7657 323.798 86.2089 323.716C92.402 323.366 98.0957 323.189 103.428 323.189L103.417 323.192Z" fill="#9A601C"/>
<path opacity="0.2" d="M286.913 380.684C275.309 380.684 264.493 380.453 253.719 379.367C238.326 377.81 225.644 374.659 214.955 369.734C205.714 365.477 197.626 359.691 189.807 354.095C181.682 348.282 173.278 342.27 163.599 337.994C141.523 328.245 115.218 328.324 94.7684 329.481C93.3562 329.56 91.9405 329.647 90.5179 329.733C76.3923 330.589 61.7878 331.472 48.94 326.892C39.8915 323.667 32.7718 318.134 25.0597 311.764C9.53903 298.947 -4.60386 284.87 -2.98497 268.808C-1.65197 255.565 10.035 244.786 22.931 234.004L54.9609 207.217C60.3446 202.715 66.4447 197.614 68.9764 191.29C74.6976 176.995 60.6512 162.948 51.7679 155.848C49.2225 153.813 46.5152 151.786 43.8974 149.825C34.1875 142.556 24.1504 135.042 19.5348 125.11C14.6644 114.625 15.4497 102.895 21.939 89.2525C27.6052 77.3379 36.5676 65.8797 45.2338 54.8018C49.9183 48.8147 54.3409 43.1616 57.9059 37.8291C62.4733 31.0053 68.5183 25.1811 75.879 20.5223C82.5337 16.3117 90.4904 12.9079 99.5286 10.4088C114.15 6.36662 131.72 4.5031 154.85 4.55743C168.18 4.58731 180.08 4.9323 190.713 8.86308C200.751 12.5738 208.714 19.308 215.744 25.249L273.497 74.07C281.364 80.72 290.282 88.2582 301.542 92.2814C311.338 95.7802 323.159 96.8207 337.678 95.4597C345.224 94.7534 352.874 93.4902 360.27 92.2678C375.143 89.8121 390.522 87.2722 405.685 89.171C416.314 90.5021 426.754 93.9384 437.608 99.6784C448.206 105.285 457.599 112.278 464.602 117.746C475.893 126.564 486.367 136.348 486.577 148.146C486.715 155.894 482.265 163.331 477.963 170.525C472.521 179.622 467.378 188.217 470.891 197.25C473.282 203.4 479.41 208.17 484.814 212.378L533.002 249.901C541.251 256.323 549.742 263.315 555.986 270.916C563.127 279.611 566.299 287.829 565.683 296.043C564.546 311.169 550.324 325.134 523.416 337.554C512.938 342.39 501.581 346.777 489.522 346.138C477.894 345.522 467.357 340.29 457.172 335.232C444.483 328.929 432.5 322.978 418.815 325.436C411.075 326.827 404.61 330.891 399.846 334.278C393.391 338.866 387.371 344.123 381.546 349.205C369.649 359.593 357.342 370.334 340.84 375.729C326.352 380.467 309.819 380.567 295.235 380.657C292.414 380.673 289.645 380.687 286.92 380.687L286.913 380.684ZM111.567 328.544C118.332 328.544 124.504 328.834 130.377 329.416C143.307 330.701 154.261 333.384 163.857 337.625C173.588 341.922 182.013 347.95 190.162 353.78C197.964 359.36 206.031 365.132 215.221 369.367C239.531 380.57 270.411 380.383 295.221 380.23C309.757 380.141 326.232 380.043 340.626 375.335C357.018 369.976 369.28 359.27 381.14 348.917C386.971 343.827 393.002 338.562 399.478 333.958C404.293 330.535 410.827 326.427 418.687 325.015C432.586 322.521 444.662 328.516 457.448 334.865C467.578 339.896 478.056 345.098 489.55 345.706C501.461 346.339 512.731 341.982 523.137 337.179C549.883 324.836 564.015 310.984 565.142 296.008C566.485 278.147 549.06 262.994 532.619 250.192L484.428 212.669C478.979 208.425 472.8 203.614 470.368 197.361C466.796 188.171 471.98 179.506 477.467 170.332C481.745 163.182 486.168 155.788 486.033 148.138C485.827 136.492 475.428 126.786 464.216 118.034C448.289 105.598 428.869 92.4878 405.592 89.5758C390.526 87.6905 375.198 90.2223 360.373 92.6698C352.964 93.8923 345.303 95.1582 337.733 95.8672C323.114 97.2363 311.2 96.185 301.311 92.6535C289.955 88.5978 280.999 81.0269 273.098 74.347L215.345 25.5261C208.349 19.6123 200.423 12.9107 190.479 9.23524C179.946 5.33978 168.107 5.00022 154.839 4.97034C120.271 4.88884 78.0663 8.58056 58.3744 38.0166C54.799 43.3599 50.3695 49.0211 45.6816 55.0137C28.5834 76.8734 9.20148 101.648 20.0308 124.953C24.6016 134.792 34.5939 142.27 44.259 149.507C46.8803 151.469 49.591 153.5 52.1434 155.538C58.8842 160.925 64.0956 166.692 67.2197 172.214C71.0844 179.041 71.8422 185.498 69.4793 191.404C66.9097 197.823 60.7648 202.96 55.3433 207.494L23.3134 234.281C10.4863 245.008 -1.13875 255.722 -2.45797 268.829C-4.05963 284.729 10.004 298.714 25.4386 311.462C33.1094 317.797 40.1912 323.301 49.1502 326.495C61.8739 331.032 76.4095 330.152 90.4663 329.302C91.8888 329.215 93.3079 329.13 94.7202 329.049C100.779 328.707 106.345 328.533 111.56 328.533L111.567 328.544Z" fill="#9E7F59"/>
<path opacity="0.2" d="M291.122 384.87C279.776 384.87 269.202 384.645 258.669 383.58C243.62 382.059 231.223 378.978 220.773 374.164C211.742 370.003 203.833 364.347 196.19 358.876C188.247 353.193 180.032 347.317 170.574 343.139C148.998 333.61 123.285 333.686 103.293 334.819C101.916 334.897 100.527 334.982 99.1394 335.066C85.3306 335.9 71.0533 336.764 58.4949 332.287C49.6496 329.133 42.6883 323.725 35.1519 317.498C19.9791 304.967 6.15312 291.208 7.73756 275.504C9.04301 262.557 20.4648 252.022 33.0715 241.48L64.3815 215.295C69.6411 210.897 75.6035 205.91 78.08 199.727C83.6703 185.756 69.9408 172.027 61.2608 165.086C58.7739 163.098 56.1251 161.117 53.5659 159.2C44.0765 152.093 34.2598 144.748 29.751 135.039C24.9873 124.787 25.7555 113.321 32.1001 99.9854C37.6422 88.337 46.4015 77.1396 54.8713 66.3089C59.449 60.4576 63.7718 54.9295 67.261 49.7192C71.725 43.0475 77.6357 37.3564 84.8311 32.8009C91.3342 28.6826 99.1152 25.3577 107.95 22.9128C122.245 18.9603 139.426 17.1348 162.028 17.1918C175.062 17.2217 186.694 17.5586 197.089 21.3997C206.902 25.029 214.687 31.611 221.558 37.4189L278.009 85.1424C285.701 91.643 294.415 99.0128 305.42 102.941C314.996 106.361 326.552 107.377 340.743 106.046C348.118 105.356 355.595 104.12 362.825 102.927C377.364 100.526 392.396 98.0431 407.221 99.8984C417.609 101.2 427.819 104.557 438.427 110.17C448.788 115.649 457.971 122.486 464.815 127.829C475.851 136.449 486.095 146.014 486.298 157.548C486.433 165.122 482.082 172.394 477.877 179.427C472.558 188.321 467.533 196.72 470.964 205.549C473.299 211.557 479.289 216.222 484.573 220.334L531.679 257.015C539.742 263.293 548.043 270.128 554.147 277.558C561.129 286.057 564.229 294.093 563.626 302.123C562.514 316.909 548.612 330.562 522.307 342.702C512.063 347.429 500.961 351.715 489.171 351.093C477.801 350.49 467.505 345.378 457.544 340.431C445.141 334.273 433.426 328.454 420.055 330.855C412.491 332.214 406.174 336.188 401.513 339.499C395.203 343.984 389.317 349.121 383.626 354.09C371.994 364.244 359.966 374.743 343.833 380.019C329.669 384.65 313.508 384.748 299.251 384.835C296.496 384.851 293.792 384.865 291.129 384.865L291.122 384.87ZM119.716 333.892C126.33 333.892 132.361 334.175 138.103 334.745C150.744 336 161.449 338.624 170.832 342.77C180.346 346.972 188.581 352.864 196.548 358.564C204.174 364.018 212.059 369.661 221.042 373.8C244.805 384.751 274.985 384.566 299.237 384.419C313.446 384.332 329.552 384.235 343.619 379.635C359.639 374.395 371.626 363.931 383.22 353.812C388.92 348.836 394.814 343.691 401.145 339.19C405.85 335.846 412.239 331.828 419.924 330.448C433.509 328.008 445.316 333.871 457.816 340.078C467.719 344.995 477.959 350.08 489.192 350.675C500.831 351.294 511.849 347.035 522.021 342.341C548.164 330.277 561.976 316.738 563.075 302.101C564.387 284.642 547.355 269.832 531.286 257.32L484.18 220.639C478.851 216.491 472.813 211.786 470.437 205.674C466.944 196.687 472.011 188.217 477.377 179.247C481.559 172.258 485.882 165.032 485.747 157.556C485.547 146.174 475.379 136.688 464.423 128.131C448.854 115.975 429.871 103.161 407.121 100.314C392.396 98.4723 377.409 100.947 362.922 103.338C355.682 104.533 348.19 105.769 340.791 106.464C326.5 107.803 314.855 106.777 305.186 103.324C294.085 99.3578 285.329 91.9581 277.603 85.4276L221.152 37.7041C214.315 31.9234 206.565 25.374 196.848 21.78C186.552 17.9742 174.983 17.6401 162.014 17.6102C161.68 17.6102 161.343 17.6102 161.008 17.6102C127.411 17.6102 86.7841 21.4242 67.7226 49.9094C64.2265 55.1332 59.9002 60.6667 55.3157 66.5262C38.6032 87.8915 19.6588 112.109 30.2436 134.89C34.711 144.506 44.4795 151.819 53.9241 158.89C56.4868 160.808 59.1356 162.791 61.6293 164.785C70.3955 171.793 84.2559 185.667 78.5795 199.849C76.0685 206.124 70.0613 211.147 64.7603 215.581L33.4503 241.765C20.9126 252.251 9.54934 262.723 8.26112 275.534C6.69734 291.072 20.4407 304.744 35.5308 317.202C43.0293 323.396 49.9492 328.774 58.7085 331.896C71.1429 336.329 85.3512 335.471 99.0911 334.639C100.483 334.555 101.867 334.471 103.249 334.392C109.17 334.058 114.615 333.89 119.71 333.89L119.716 333.892Z" fill="#836C50"/>
<path opacity="0.2" d="M295.325 389.059C284.237 389.059 273.907 388.839 263.618 387.799C248.914 386.313 236.803 383.303 226.594 378.598C217.769 374.531 210.044 369.006 202.576 363.66C194.816 358.107 186.79 352.367 177.549 348.284C156.469 338.975 131.348 339.051 111.822 340.154C110.475 340.23 109.121 340.311 107.764 340.396C94.2723 341.211 80.3223 342.055 68.0498 337.679C59.4077 334.599 52.6049 329.312 45.2407 323.23C30.4158 310.987 16.9101 297.543 18.4532 282.197C19.7277 269.547 30.8877 259.254 43.2085 248.953L73.7986 223.372C78.9377 219.074 84.7622 214.203 87.1802 208.165C92.6431 194.52 79.2305 181.105 70.7502 174.328C68.3185 172.386 65.7351 170.449 63.2345 168.577C53.962 161.636 44.3727 154.457 39.9638 144.971C35.3103 134.955 36.0612 123.749 42.2578 110.721C47.6725 99.3415 56.2285 88.3995 64.5055 77.8187C68.9763 72.1005 73.2027 66.7001 76.6092 61.6093C80.9699 55.0897 86.7462 49.5291 93.7763 45.0794C100.131 41.0563 107.73 37.8074 116.365 35.4196C130.329 31.5594 147.117 29.7882 169.199 29.8317C181.933 29.8589 193.3 30.1903 203.454 33.9445C213.04 37.4895 220.649 43.9195 227.362 49.5942L282.515 96.2176C290.027 102.569 298.542 109.767 309.292 113.606C318.647 116.947 329.934 117.939 343.798 116.64C351.004 115.964 358.31 114.758 365.374 113.592C379.579 111.248 394.266 108.822 408.75 110.634C418.901 111.905 428.876 115.187 439.24 120.669C449.364 126.023 458.336 132.703 465.022 137.924C475.807 146.345 485.813 155.693 486.012 166.963C486.143 174.366 481.893 181.469 477.784 188.34C472.586 197.027 467.678 205.233 471.029 213.856C473.313 219.726 479.161 224.282 484.321 228.299L530.342 264.135C538.22 270.269 546.332 276.946 552.294 284.205C559.117 292.509 562.145 300.36 561.556 308.208C560.471 322.657 546.886 335.998 521.184 347.858C511.174 352.476 500.328 356.668 488.809 356.056C477.701 355.467 467.64 350.471 457.909 345.639C445.792 339.621 434.349 333.939 421.288 336.283C413.9 337.609 407.727 341.493 403.177 344.726C397.011 349.107 391.263 354.128 385.7 358.982C374.337 368.903 362.584 379.16 346.822 384.316C332.983 388.842 317.193 388.937 303.264 389.024C300.57 389.04 297.929 389.051 295.328 389.051L295.325 389.059ZM127.863 339.244C134.324 339.244 140.218 339.521 145.829 340.078C158.181 341.303 168.641 343.867 177.807 347.918C187.1 352.022 195.15 357.781 202.931 363.347C210.381 368.677 218.083 374.189 226.859 378.231C250.075 388.929 279.563 388.749 303.254 388.605C317.135 388.521 332.869 388.426 346.609 383.93C362.26 378.812 373.972 368.59 385.293 358.702C390.863 353.84 396.622 348.811 402.808 344.416C407.407 341.148 413.648 337.223 421.16 335.875C434.439 333.49 445.974 339.219 458.185 345.285C467.86 350.088 477.863 355.057 488.837 355.638C500.21 356.244 510.971 352.082 520.905 347.497C546.442 335.71 559.937 322.486 561.012 308.186C562.293 291.132 545.653 276.661 529.957 264.44L483.935 228.604C478.727 224.55 472.827 219.954 470.506 213.981C467.092 205.201 472.045 196.924 477.288 188.16C481.373 181.334 485.596 174.273 485.465 166.969C485.268 155.85 475.338 146.581 464.633 138.226C449.422 126.349 430.881 113.831 408.654 111.052C394.266 109.251 379.631 111.669 365.474 114.008C358.399 115.176 351.083 116.385 343.853 117.061C329.89 118.371 318.509 117.366 309.064 113.992C298.218 110.118 289.662 102.887 282.115 96.5055L226.963 49.8822C220.284 44.2346 212.713 37.8372 203.22 34.3275C193.162 30.6086 181.858 30.2826 169.189 30.2555C136.167 30.1794 95.8774 33.7027 77.0742 61.8076C73.6608 66.9119 69.431 72.3178 64.9532 78.0414C48.6266 98.915 30.1196 122.573 40.4563 144.827C44.8205 154.22 54.3616 161.365 63.5927 168.273C66.0968 170.147 68.6836 172.084 71.1222 174.032C79.6886 180.88 93.2287 194.435 87.6831 208.295C85.2272 214.426 79.3579 219.335 74.1809 223.665L43.5908 249.246C31.3423 259.49 20.2409 269.72 18.9802 282.235C17.4509 297.415 30.8808 310.77 45.6196 322.942C52.9459 328.992 59.7073 334.248 68.2633 337.299C80.4119 341.629 94.293 340.79 107.716 339.977C109.073 339.896 110.43 339.814 111.777 339.738C117.564 339.41 122.882 339.247 127.859 339.247L127.863 339.244Z" fill="#6E7781"/>
<path opacity="0.2" d="M299.523 393.245C288.697 393.245 278.612 393.031 268.565 392.015C254.208 390.564 242.38 387.625 232.408 383.031C223.79 379.06 216.247 373.665 208.955 368.446C201.377 363.024 193.541 357.42 184.52 353.435C163.94 344.345 139.412 344.419 120.343 345.497C119.028 345.571 117.705 345.652 116.379 345.731C103.204 346.527 89.5844 347.353 77.5978 343.08C69.1554 340.07 62.518 334.908 55.3226 328.97C40.8456 317.015 27.6568 303.886 29.1655 288.902C30.4089 276.547 41.3106 266.496 53.3386 256.437L83.2088 231.459C88.2273 227.262 93.9141 222.508 96.2736 216.61C101.606 203.288 88.5098 190.195 80.2293 183.575C77.8561 181.679 75.3313 179.788 72.8892 177.96C63.8338 171.182 54.4718 164.171 50.1662 154.908C45.623 145.125 46.3532 134.186 52.4086 121.459C57.6958 110.346 66.052 99.6621 74.1327 89.3313C78.5002 83.7489 82.6232 78.4761 85.9506 73.5049C104.444 45.8618 143.979 42.401 176.367 42.4716C188.802 42.4988 199.9 42.8193 209.82 46.4866C219.182 49.9474 226.611 56.228 233.166 61.7696L287.02 107.295C294.357 113.497 302.672 120.525 313.167 124.274C322.301 127.536 333.32 128.506 346.857 127.237C353.894 126.577 361.024 125.401 367.923 124.26C381.794 121.97 396.137 119.601 410.279 121.37C432.131 124.102 450.321 136.376 465.229 148.019C475.758 156.241 485.53 165.369 485.727 176.376C485.854 183.605 481.703 190.543 477.691 197.252C472.617 205.733 467.826 213.747 471.098 222.165C473.327 227.897 479.037 232.344 484.077 236.267L529.013 271.258C536.704 277.248 544.627 283.768 550.448 290.858C557.109 298.969 560.068 306.635 559.493 314.298C558.432 328.408 545.167 341.436 520.068 353.019C510.936 357.233 501.085 361.082 490.656 361.082C489.922 361.082 489.192 361.063 488.451 361.025C477.601 360.449 467.778 355.57 458.274 350.852C446.446 344.978 435.272 339.429 422.521 341.719C415.308 343.014 409.281 346.804 404.841 349.96C398.82 354.239 393.205 359.14 387.777 363.88C376.679 373.567 365.205 383.585 349.812 388.619C336.296 393.039 320.879 393.131 307.277 393.215C304.645 393.232 302.065 393.243 299.523 393.243V393.245ZM136.009 344.595C142.319 344.595 148.075 344.867 153.551 345.41C165.614 346.608 175.826 349.113 184.779 353.065C193.855 357.075 201.711 362.695 209.313 368.134C216.588 373.339 224.107 378.72 232.677 382.667C255.345 393.112 284.137 392.938 307.27 392.794C320.824 392.713 336.186 392.618 349.602 388.231C364.882 383.232 376.317 373.252 387.374 363.6C392.813 358.852 398.437 353.943 404.476 349.651C408.967 346.459 415.06 342.626 422.397 341.308C435.362 338.98 446.629 344.574 458.557 350.496C468.001 355.187 477.77 360.036 488.486 360.604C499.584 361.193 510.096 357.132 519.796 352.655C544.73 341.148 557.905 328.234 558.955 314.274C560.206 297.622 543.962 283.496 528.634 271.562L483.698 236.571C478.614 232.61 472.851 228.125 470.585 222.29C467.251 213.714 472.087 205.633 477.205 197.073C481.194 190.407 485.317 183.515 485.189 176.384C484.996 165.529 475.3 156.48 464.85 148.32C450.001 136.723 431.893 124.502 410.193 121.788C396.15 120.03 381.856 122.391 368.033 124.673C361.124 125.814 353.98 126.993 346.922 127.656C333.286 128.932 322.174 127.952 312.95 124.659C302.358 120.875 294.002 113.815 286.634 107.583L232.78 62.0576C226.26 56.5458 218.868 50.2951 209.599 46.8696C199.779 43.2404 188.743 42.9198 176.374 42.8927C144.151 42.8193 104.795 46.2584 86.4328 73.7005C83.0986 78.6853 78.9687 83.9634 74.5977 89.5513C58.6533 109.933 40.5838 133.032 50.6795 154.758C54.9402 163.929 64.2574 170.905 73.2681 177.65C75.7137 179.481 78.2419 181.372 80.6186 183.276C88.9851 189.964 102.208 203.202 96.7902 216.735C94.3929 222.722 88.6613 227.517 83.6049 231.747L53.7347 256.725C41.7756 266.727 30.9359 276.715 29.7062 288.934C28.2148 303.756 41.3243 316.795 55.7152 328.679C62.8693 334.585 69.4689 339.719 77.8217 342.697C89.6809 346.923 103.235 346.106 116.341 345.313C117.667 345.231 118.99 345.152 120.305 345.079C125.954 344.758 131.149 344.598 136.012 344.598L136.009 344.595Z" fill="#6E7781"/>
<path opacity="0.2" d="M303.732 397.434C293.168 397.434 283.324 397.225 273.514 396.233C259.502 394.818 247.96 391.949 238.229 387.464C229.818 383.588 222.457 378.323 215.341 373.23C207.946 367.941 200.303 362.47 191.495 358.58C171.411 349.708 147.479 349.781 128.872 350.835C127.587 350.909 126.299 350.985 125.004 351.063C112.146 351.84 98.8534 352.644 87.1527 348.475C78.9135 345.538 72.4345 340.502 65.4148 334.705C51.2857 323.037 38.4138 310.223 39.888 295.598C41.1039 283.539 51.7403 273.73 63.479 263.913L92.6293 239.537C97.5239 235.444 103.076 230.801 105.377 225.05C110.582 212.052 97.8029 199.276 89.7222 192.816C87.4075 190.964 84.9413 189.122 82.5612 187.337C73.7228 180.722 64.5846 173.88 60.3859 164.839C55.9494 155.293 56.6659 144.615 62.5731 132.195C67.7329 121.351 75.8859 110.925 83.7736 100.841C88.0344 95.3945 92.061 90.2467 95.3056 85.395C113.355 58.4175 151.943 55.0327 183.545 55.1088C195.68 55.1359 206.513 55.4483 216.192 59.0287C225.33 62.408 232.581 68.5364 238.977 73.945L291.532 118.373C298.69 124.426 306.805 131.282 317.045 134.941C325.959 138.125 336.713 139.07 349.919 137.832C356.784 137.188 363.745 136.039 370.475 134.928C384.012 132.692 398.007 130.383 411.812 132.108C433.137 134.776 450.889 146.753 465.442 158.116C475.72 166.143 485.258 175.05 485.448 185.794C485.572 192.849 481.521 199.621 477.605 206.168C472.655 214.445 467.977 222.26 471.17 230.475C473.344 236.066 478.917 240.407 483.836 244.234L527.69 278.383C535.196 284.229 542.925 290.591 548.608 297.51C555.111 305.426 557.998 312.91 557.436 320.389C556.4 334.161 543.455 346.875 518.959 358.181C510.044 362.293 500.431 366.05 490.253 366.05C489.536 366.05 488.823 366.031 488.103 365.993C477.515 365.431 467.926 360.669 458.653 356.064C447.111 350.333 436.206 344.919 423.768 347.152C416.731 348.415 410.851 352.115 406.515 355.195C400.642 359.37 395.162 364.154 389.864 368.778C379.035 378.231 367.837 388.008 352.812 392.922C339.624 397.236 324.578 397.328 311.303 397.407C308.737 397.423 306.219 397.434 303.743 397.434H303.732ZM144.158 349.947C150.317 349.947 155.931 350.21 161.277 350.743C173.047 351.911 183.018 354.356 191.754 358.216C200.613 362.128 208.28 367.615 215.696 372.92C222.795 377.997 230.135 383.248 238.495 387.103C260.615 397.296 288.711 397.124 311.283 396.986C324.509 396.904 339.5 396.815 352.592 392.531C367.503 387.655 378.659 377.913 389.451 368.495C394.759 363.861 400.246 359.072 406.143 354.88C410.527 351.764 416.476 348.024 423.634 346.739C436.288 344.465 447.286 349.925 458.925 355.706C468.143 360.283 477.673 365.015 488.127 365.569C498.96 366.145 509.214 362.182 518.68 357.814C543.011 346.587 555.869 333.985 556.892 320.364C558.115 304.117 542.26 290.331 527.304 278.685L483.45 244.536C478.486 240.673 472.861 236.291 470.65 230.597C467.395 222.228 472.117 214.339 477.112 205.986C481.004 199.48 485.027 192.757 484.903 185.797C484.717 175.205 475.255 166.377 465.056 158.415C450.566 147.098 432.896 135.172 411.723 132.524C398.017 130.81 384.071 133.113 370.579 135.341C363.838 136.454 356.863 137.606 349.974 138.25C336.665 139.497 325.822 138.541 316.818 135.324C306.478 131.633 298.328 124.741 291.133 118.659L238.577 74.2302C232.215 68.8515 225.003 62.753 215.958 59.409C206.375 55.8667 195.604 55.557 183.535 55.5298C152.084 55.4538 113.685 58.8141 95.7707 85.5906C92.5157 90.4559 88.4856 95.6064 84.2214 101.061C68.6629 120.949 51.0308 143.49 60.8819 164.692C65.0393 173.641 74.1327 180.448 82.9229 187.03C85.3099 188.815 87.7761 190.662 90.0976 192.52C98.261 199.048 111.167 211.968 105.88 225.178C103.541 231.021 97.9475 235.702 93.0117 239.828L63.8613 264.203C52.1915 273.964 41.6136 283.71 40.415 295.633C38.958 310.093 51.7541 322.817 65.7971 334.414C72.779 340.178 79.2201 345.185 87.3697 348.092C98.943 352.218 112.17 351.417 124.959 350.642C126.254 350.564 127.542 350.485 128.827 350.414C134.342 350.102 139.408 349.944 144.155 349.944L144.158 349.947Z" fill="#6E7781"/>
<path opacity="0.2" d="M307.284 401.626C286.82 401.626 263.188 400.716 244.047 391.898C235.842 388.119 228.664 382.982 221.72 378.014C214.508 372.855 207.054 367.52 198.467 363.728C178.882 355.076 155.539 355.146 137.393 356.173C136.143 356.244 134.886 356.32 133.625 356.396C121.084 357.154 108.119 357.939 96.7075 353.872C88.6717 351.006 82.3511 346.095 75.5035 340.442C61.7223 329.062 49.1673 316.564 50.6037 302.297C51.7885 290.534 62.1632 280.967 73.6125 271.391L102.043 247.619C106.817 243.626 112.228 239.1 114.474 233.49C119.548 220.815 107.086 208.357 99.2082 202.058C96.9487 200.251 94.5479 198.453 92.2229 196.714C83.6049 190.263 74.6907 183.588 70.5918 174.771C60.8956 153.905 78.1661 131.828 93.4009 112.351C97.5583 107.037 101.482 102.02 104.647 97.2878C122.252 70.9731 159.892 67.6698 190.713 67.7459C202.548 67.7731 213.116 68.0773 222.557 71.568C231.471 74.8631 238.543 80.8421 244.781 86.1149L296.038 129.446C303.019 135.346 310.931 142.037 320.917 145.604C329.607 148.708 340.092 149.629 352.974 148.423C359.67 147.796 366.459 146.674 373.021 145.59C386.223 143.411 399.874 141.154 413.338 142.841C434.139 145.443 451.451 157.124 465.645 168.208C475.669 176.036 484.972 184.724 485.158 195.204C485.279 202.085 481.328 208.689 477.508 215.078C472.679 223.149 468.119 230.771 471.232 238.782C473.351 244.234 478.786 248.467 483.581 252.199L526.35 285.503C541.02 296.926 556.569 310.454 555.363 326.474C554.354 339.907 541.726 352.308 517.832 363.334C509.138 367.346 499.763 371.011 489.832 371.011C489.137 371.011 488.437 370.992 487.735 370.956C477.405 370.408 468.053 365.765 459.008 361.272C447.752 355.681 437.119 350.403 424.987 352.579C418.126 353.812 412.391 357.417 408.165 360.422C402.436 364.494 397.094 369.158 391.924 373.667C381.36 382.887 370.438 392.425 355.785 397.217C342.92 401.425 328.247 401.514 315.299 401.593C312.695 401.609 310.008 401.626 307.273 401.626H307.284ZM152.304 355.296C158.311 355.296 163.788 355.554 169.003 356.07C180.483 357.211 190.207 359.593 198.729 363.358C207.367 367.175 214.849 372.526 222.082 377.701C229.005 382.654 236.163 387.774 244.319 391.534C265.888 401.474 293.289 401.308 315.306 401.172C328.205 401.093 342.823 401.004 355.592 396.828C370.134 392.072 381.015 382.572 391.538 373.388C396.715 368.87 402.068 364.198 407.817 360.109C412.091 357.07 417.895 353.421 424.88 352.169C437.225 349.95 447.951 355.277 459.304 360.916C468.294 365.379 477.587 369.995 487.783 370.535C498.347 371.095 508.346 367.232 517.574 362.97C541.303 352.02 553.84 339.733 554.839 326.449C556.031 310.607 540.569 297.163 525.985 285.805L483.216 252.501C478.376 248.733 472.889 244.46 470.729 238.904C467.554 230.739 472.159 223.043 477.033 214.896C480.829 208.553 484.752 201.993 484.631 195.21C484.449 184.881 475.221 176.273 465.277 168.506C451.144 157.469 433.915 145.84 413.262 143.256C399.898 141.583 386.292 143.83 373.138 146.003C366.563 147.089 359.763 148.211 353.043 148.842C340.061 150.059 329.483 149.124 320.7 145.989C310.614 142.387 302.665 135.667 295.648 129.736L244.392 86.4055C238.185 81.16 231.151 75.2135 222.333 71.951C212.992 68.4956 202.486 68.1941 190.717 68.1669C160.041 68.0909 122.599 71.3697 105.126 97.4834C101.953 102.226 98.0233 107.252 93.8624 112.571C78.6897 131.967 61.495 153.951 71.0981 174.624C75.1522 183.349 84.0182 189.988 92.5949 196.408C94.9233 198.149 97.3275 199.95 99.594 201.762C107.558 208.129 120.147 220.731 114.991 233.618C112.707 239.32 107.251 243.884 102.439 247.91L74.0087 271.682C62.6282 281.2 52.3155 290.705 51.1444 302.329C49.7253 316.431 62.2011 328.84 75.8962 340.148C82.7024 345.769 88.9851 350.653 96.9314 353.487C108.219 357.51 121.115 356.73 133.587 355.975C134.848 355.899 136.109 355.823 137.359 355.752C142.736 355.448 147.678 355.296 152.308 355.296H152.304Z" fill="#6E7781"/>
<path opacity="0.2" d="M311.503 405.814C291.556 405.814 268.523 404.926 249.868 396.331C241.874 392.648 234.875 387.641 228.106 382.8C221.08 377.772 213.812 372.573 205.442 368.875C186.353 360.443 163.606 360.514 145.922 361.514C144.702 361.582 143.476 361.658 142.247 361.731C130.022 362.47 117.385 363.236 106.262 359.27C98.4298 356.477 92.2677 351.688 85.5958 346.179C72.1625 335.088 59.9244 322.904 61.3262 308.998C62.4801 297.532 72.593 288.206 83.753 278.872L111.46 255.701C116.114 251.811 121.387 247.399 123.574 241.933C128.517 229.584 116.375 217.441 108.698 211.302C106.497 209.542 104.154 207.79 101.891 206.095C93.4905 199.806 84.8036 193.3 80.808 184.705C71.3565 164.364 88.1895 142.846 103.042 123.861C107.093 118.683 110.919 113.791 114.002 109.181C130.994 83.7841 167.126 80.3831 196.999 80.3831C197.299 80.3831 197.595 80.3831 197.892 80.3831C209.427 80.4075 219.726 80.7063 228.929 84.1101C237.616 87.3237 244.512 93.1506 250.592 98.2902L300.55 140.521C307.353 146.272 315.065 152.791 324.799 156.269C333.269 159.295 343.488 160.191 356.04 159.015C362.567 158.404 369.18 157.312 375.58 156.255C388.449 154.131 401.754 151.933 414.878 153.574C435.152 156.111 452.03 167.496 465.862 178.299C475.634 185.93 484.703 194.4 484.883 204.617C485 211.327 481.149 217.762 477.425 223.988C472.72 231.852 468.277 239.282 471.308 247.087C473.375 252.4 478.669 256.524 483.343 260.161L525.028 292.621C539.326 303.755 554.481 316.941 553.307 332.556C552.321 345.649 540.014 357.738 516.726 368.487C508.253 372.399 499.112 375.968 489.433 375.968C488.754 375.968 488.072 375.952 487.387 375.914C477.319 375.381 468.201 370.853 459.383 366.474C448.413 361.027 438.052 355.882 426.231 358.004C419.545 359.205 413.958 362.72 409.839 365.648C404.255 369.617 399.047 374.162 394.011 378.56C383.716 387.549 373.069 396.842 358.788 401.511C346.251 405.613 331.946 405.7 319.325 405.776C316.787 405.793 314.169 405.809 311.503 405.809V405.814ZM160.454 360.647C166.309 360.647 171.648 360.897 176.729 361.402C187.92 362.513 197.399 364.836 205.704 368.506C214.125 372.225 221.414 377.441 228.464 382.485C235.212 387.312 242.187 392.303 250.137 395.964C271.158 405.651 297.863 405.488 319.322 405.358C331.894 405.282 346.14 405.195 358.585 401.126C372.756 396.491 383.361 387.234 393.619 378.28C398.665 373.877 403.88 369.321 409.484 365.339C413.652 362.378 419.307 358.819 426.117 357.597C438.155 355.434 448.606 360.625 459.673 366.121C468.432 370.47 477.491 374.969 487.425 375.496C497.72 376.042 507.461 372.277 516.458 368.123C539.584 357.45 551.801 345.475 552.776 332.531C553.937 317.091 538.867 303.989 524.656 292.922L482.971 260.463C478.252 256.79 472.906 252.626 470.802 247.209C467.709 239.249 472.193 231.746 476.947 223.806C480.646 217.623 484.469 211.231 484.352 204.622C484.173 194.558 475.183 186.169 465.49 178.601C451.716 167.846 434.924 156.51 414.799 153.992C401.772 152.362 388.517 154.552 375.694 156.668C369.284 157.727 362.657 158.819 356.109 159.433C343.457 160.62 333.145 159.71 324.582 156.652C314.751 153.142 307.001 146.59 300.164 140.809L250.206 98.5782C244.157 93.4657 237.303 87.6714 228.709 84.4931C219.605 81.1274 209.368 80.8313 197.895 80.8068C168.008 80.7444 131.507 83.9281 114.481 109.376C111.388 114 107.558 118.898 103.5 124.081C88.713 142.985 71.9524 164.41 81.3144 184.555C85.2651 193.058 93.9072 199.529 102.263 205.785C104.53 207.483 106.876 209.238 109.083 211.003C116.847 217.208 129.12 229.495 124.091 242.058C121.866 247.616 116.548 252.063 111.856 255.989L84.1491 279.16C73.058 288.437 63.0071 297.7 61.8636 309.028C60.4789 322.771 72.6412 334.862 85.985 345.886C92.619 351.365 98.7398 356.124 106.486 358.884C117.484 362.804 130.053 362.043 142.209 361.31C143.438 361.237 144.665 361.161 145.887 361.093C151.13 360.797 155.942 360.647 160.454 360.647Z" fill="#6E7781"/>
<path opacity="0.2" d="M315.719 410.001C296.293 410.001 273.855 409.137 255.686 400.764C247.898 397.176 241.081 392.3 234.489 387.584C227.645 382.686 220.566 377.623 212.417 374.023C193.827 365.814 171.673 365.879 154.447 366.854C153.258 366.922 152.063 366.993 150.865 367.066C138.957 367.786 126.647 368.53 115.814 364.668C108.184 361.948 102.181 357.281 95.6812 351.914C82.5957 341.107 70.6779 329.242 72.0419 315.694C73.1683 304.524 83.0194 295.44 93.89 286.348L120.877 263.779C125.41 259.99 130.546 255.695 132.674 250.374C137.49 238.348 125.665 226.523 118.187 220.546C116.045 218.832 113.761 217.124 111.557 215.475C103.373 209.349 94.9096 203.014 91.0208 194.639C81.8138 174.825 98.2094 153.864 112.676 135.373C116.62 130.329 120.347 125.567 123.354 121.074C140.07 96.0899 175.802 92.9632 205.07 93.0229C216.309 93.0474 226.339 93.338 235.305 96.6522C243.768 99.7816 250.481 105.456 256.406 110.466L305.065 151.599C311.693 157.2 319.202 163.549 328.681 166.933C336.93 169.878 346.881 170.753 359.105 169.609C365.46 169.014 371.905 167.949 378.136 166.92C390.67 164.85 403.628 162.709 416.414 164.309C436.164 166.781 452.601 177.87 466.076 188.394C475.597 195.826 484.428 204.079 484.604 214.029C484.721 220.565 480.966 226.835 477.339 232.898C472.758 240.559 468.429 247.793 471.384 255.394C473.395 260.566 478.552 264.584 483.105 268.126L523.709 299.74C537.634 310.585 552.397 323.428 551.254 338.643C550.296 351.4 538.306 363.176 515.621 373.646C506.786 377.723 497.21 381.418 487.039 380.882C477.229 380.363 468.349 375.952 459.762 371.687C449.078 366.382 438.986 361.372 427.478 363.437C420.964 364.605 415.525 368.028 411.513 370.88C406.074 374.746 401.004 379.174 396.099 383.455C386.069 392.21 375.701 401.262 361.789 405.812C349.575 409.808 335.642 409.892 323.349 409.965C320.876 409.982 318.327 409.995 315.726 409.995L315.719 410.001ZM168.6 365.996C174.304 365.996 179.502 366.24 184.455 366.732C195.356 367.813 204.588 370.079 212.679 373.651C220.883 377.275 227.982 382.355 234.851 387.266C241.423 391.968 248.215 396.828 255.958 400.395C276.432 409.829 302.441 409.669 323.338 409.544C335.583 409.471 349.461 409.384 361.579 405.423C375.38 400.908 385.707 391.892 395.696 383.172C400.611 378.883 405.691 374.447 411.151 370.568C415.212 367.683 420.723 364.217 427.354 363.027C439.079 360.922 449.264 365.977 460.045 371.331C468.577 375.569 477.398 379.948 487.073 380.461C497.1 380.994 506.586 377.324 515.349 373.282C537.869 362.888 549.769 351.226 550.72 338.619C551.85 323.583 537.176 310.824 523.333 300.045L482.73 268.43C478.135 264.852 472.924 260.794 470.874 255.519C467.86 247.763 472.231 240.456 476.857 232.722C480.46 226.702 484.184 220.476 484.07 214.038C483.898 204.236 475.138 196.065 465.701 188.695C452.285 178.221 435.93 167.181 416.331 164.728C403.646 163.141 390.732 165.274 378.246 167.336C372.005 168.365 365.547 169.433 359.167 170.03C346.843 171.185 336.796 170.299 328.457 167.322C318.881 163.902 311.331 157.521 304.669 151.889L256.01 110.756C250.12 105.777 243.444 100.132 235.074 97.0379C226.208 93.7591 216.237 93.4711 205.066 93.4467C175.964 93.3815 140.411 96.4865 123.826 121.272C120.812 125.776 117.082 130.546 113.131 135.596C98.7295 154.006 82.4063 174.874 91.5237 194.495C95.3712 202.778 103.786 209.077 111.925 215.17C114.133 216.825 116.417 218.533 118.569 220.253C126.13 226.297 138.086 238.266 133.188 250.504C131.021 255.918 125.841 260.251 121.27 264.073L94.2827 286.642C83.4809 295.677 73.6918 304.698 72.5793 315.73C71.2325 329.111 83.0745 340.89 96.0738 351.623C102.536 356.958 108.498 361.592 116.041 364.282C126.753 368.099 138.992 367.36 150.83 366.642C152.029 366.569 153.224 366.499 154.412 366.431C159.517 366.143 164.208 365.996 168.6 365.996Z" fill="#6E7781"/>
</g>
<defs>
<clipPath id="clip0_18_325">
<rect width="549" height="402" fill="white"/>
</clipPath>
</defs>
</svg>
